<mxfile host="app.diagrams.net" modified="2021-12-23T16:26:45.020Z" agent="5.0 (Macintosh; Intel Mac OS X 10_15_7) AppleWebKit/605.1.15 (KHTML, like Gecko) Version/15.2 Safari/605.1.15" etag="y5QIupydO96SuxPHal0x" version="16.0.3" type="github">
  <diagram id="kgpKYQtTHZ0yAKxKKP6v" name="Page-1">
    <mxGraphModel dx="1583" dy="518" grid="1" gridSize="10" guides="1" tooltips="1" connect="1" arrows="1" fold="1" page="1" pageScale="1" pageWidth="850" pageHeight="1100" math="0" shadow="0">
      <root>
        <mxCell id="0" />
        <mxCell id="1" parent="0" />
        <mxCell id="3nuBFxr9cyL0pnOWT2aG-1" value="FlowRunner" style="shape=umlLifeline;perimeter=lifelinePerimeter;container=1;collapsible=0;recursiveResize=0;rounded=0;shadow=0;strokeWidth=1;" parent="1" vertex="1">
          <mxGeometry x="120" y="80" width="100" height="580" as="geometry" />
        </mxCell>
        <mxCell id="3nuBFxr9cyL0pnOWT2aG-2" value="" style="points=[];perimeter=orthogonalPerimeter;rounded=0;shadow=0;strokeWidth=1;" parent="3nuBFxr9cyL0pnOWT2aG-1" vertex="1">
          <mxGeometry x="45" y="70" width="10" height="470" as="geometry" />
        </mxCell>
        <mxCell id="dpF4v_OvI2u5oA4uFFR8-5" value="" style="html=1;points=[];perimeter=orthogonalPerimeter;" parent="3nuBFxr9cyL0pnOWT2aG-1" vertex="1">
          <mxGeometry x="50" y="100" width="10" height="90" as="geometry" />
        </mxCell>
        <mxCell id="dpF4v_OvI2u5oA4uFFR8-6" value="runReadyJob()" style="edgeStyle=orthogonalEdgeStyle;html=1;align=left;spacingLeft=2;endArrow=block;rounded=0;entryX=1;entryY=0;" parent="3nuBFxr9cyL0pnOWT2aG-1" target="dpF4v_OvI2u5oA4uFFR8-5" edge="1">
          <mxGeometry relative="1" as="geometry">
            <mxPoint x="55" y="80" as="sourcePoint" />
            <Array as="points">
              <mxPoint x="85" y="80" />
            </Array>
          </mxGeometry>
        </mxCell>
        <mxCell id="dpF4v_OvI2u5oA4uFFR8-9" value="线程池启动JobRunner" style="html=1;verticalAlign=bottom;endArrow=block;entryX=0.083;entryY=0.182;entryDx=0;entryDy=0;entryPerimeter=0;" parent="3nuBFxr9cyL0pnOWT2aG-1" target="3nuBFxr9cyL0pnOWT2aG-6" edge="1">
          <mxGeometry width="80" relative="1" as="geometry">
            <mxPoint x="60" y="160" as="sourcePoint" />
            <mxPoint x="140" y="160" as="targetPoint" />
          </mxGeometry>
        </mxCell>
        <mxCell id="3nuBFxr9cyL0pnOWT2aG-5" value="JobRunner" style="shape=umlLifeline;perimeter=lifelinePerimeter;container=1;collapsible=0;recursiveResize=0;rounded=0;shadow=0;strokeWidth=1;" parent="1" vertex="1">
          <mxGeometry x="300" y="80" width="100" height="580" as="geometry" />
        </mxCell>
        <mxCell id="3nuBFxr9cyL0pnOWT2aG-6" value="" style="points=[];perimeter=orthogonalPerimeter;rounded=0;shadow=0;strokeWidth=1;" parent="3nuBFxr9cyL0pnOWT2aG-5" vertex="1">
          <mxGeometry x="45" y="80" width="10" height="440" as="geometry" />
        </mxCell>
        <mxCell id="dpF4v_OvI2u5oA4uFFR8-10" value="" style="html=1;points=[];perimeter=orthogonalPerimeter;" parent="3nuBFxr9cyL0pnOWT2aG-5" vertex="1">
          <mxGeometry x="50" y="193" width="10" height="87" as="geometry" />
        </mxCell>
        <mxCell id="dpF4v_OvI2u5oA4uFFR8-11" value="runJob()" style="edgeStyle=orthogonalEdgeStyle;html=1;align=left;spacingLeft=2;endArrow=block;rounded=0;entryX=1;entryY=0;" parent="3nuBFxr9cyL0pnOWT2aG-5" target="dpF4v_OvI2u5oA4uFFR8-10" edge="1">
          <mxGeometry relative="1" as="geometry">
            <mxPoint x="55" y="173" as="sourcePoint" />
            <Array as="points">
              <mxPoint x="85" y="173" />
            </Array>
          </mxGeometry>
        </mxCell>
        <mxCell id="dpF4v_OvI2u5oA4uFFR8-16" value="job#run()" style="html=1;verticalAlign=bottom;endArrow=block;" parent="3nuBFxr9cyL0pnOWT2aG-5" target="dpF4v_OvI2u5oA4uFFR8-13" edge="1">
          <mxGeometry width="80" relative="1" as="geometry">
            <mxPoint x="60" y="210" as="sourcePoint" />
            <mxPoint x="140" y="210" as="targetPoint" />
          </mxGeometry>
        </mxCell>
        <mxCell id="3nuBFxr9cyL0pnOWT2aG-7" value="return" style="verticalAlign=bottom;endArrow=open;dashed=1;endSize=8;exitX=0;exitY=0.95;shadow=0;strokeWidth=1;" parent="1" source="3nuBFxr9cyL0pnOWT2aG-6" target="3nuBFxr9cyL0pnOWT2aG-2" edge="1">
          <mxGeometry relative="1" as="geometry">
            <mxPoint x="275" y="236" as="targetPoint" />
          </mxGeometry>
        </mxCell>
        <mxCell id="dpF4v_OvI2u5oA4uFFR8-7" value="构造JobRunner" style="html=1;verticalAlign=bottom;endArrow=block;entryX=-0.029;entryY=0.091;entryDx=0;entryDy=0;entryPerimeter=0;" parent="1" target="3nuBFxr9cyL0pnOWT2aG-6" edge="1">
          <mxGeometry width="80" relative="1" as="geometry">
            <mxPoint x="180" y="199.97" as="sourcePoint" />
            <mxPoint x="340" y="200" as="targetPoint" />
          </mxGeometry>
        </mxCell>
        <mxCell id="dpF4v_OvI2u5oA4uFFR8-12" value="Job" style="shape=umlLifeline;perimeter=lifelinePerimeter;container=1;collapsible=0;recursiveResize=0;rounded=0;shadow=0;strokeWidth=1;" parent="1" vertex="1">
          <mxGeometry x="480" y="80" width="100" height="580" as="geometry" />
        </mxCell>
        <mxCell id="dpF4v_OvI2u5oA4uFFR8-13" value="" style="points=[];perimeter=orthogonalPerimeter;rounded=0;shadow=0;strokeWidth=1;" parent="dpF4v_OvI2u5oA4uFFR8-12" vertex="1">
          <mxGeometry x="45" y="200" width="10" height="320" as="geometry" />
        </mxCell>
        <mxCell id="dpF4v_OvI2u5oA4uFFR8-29" value="" style="html=1;points=[];perimeter=orthogonalPerimeter;fontSize=8;" parent="dpF4v_OvI2u5oA4uFFR8-12" vertex="1">
          <mxGeometry x="50" y="240" width="10" height="20" as="geometry" />
        </mxCell>
        <mxCell id="dpF4v_OvI2u5oA4uFFR8-30" value="执行实际的job" style="edgeStyle=orthogonalEdgeStyle;html=1;align=left;spacingLeft=2;endArrow=block;rounded=0;entryX=1;entryY=0;fontSize=8;" parent="dpF4v_OvI2u5oA4uFFR8-12" target="dpF4v_OvI2u5oA4uFFR8-29" edge="1">
          <mxGeometry relative="1" as="geometry">
            <mxPoint x="55" y="220" as="sourcePoint" />
            <Array as="points">
              <mxPoint x="85" y="220" />
            </Array>
          </mxGeometry>
        </mxCell>
        <mxCell id="dpF4v_OvI2u5oA4uFFR8-17" value="return exitcode" style="html=1;verticalAlign=bottom;endArrow=open;dashed=1;endSize=8;entryX=1.028;entryY=0.892;entryDx=0;entryDy=0;entryPerimeter=0;" parent="1" source="dpF4v_OvI2u5oA4uFFR8-13" target="dpF4v_OvI2u5oA4uFFR8-10" edge="1">
          <mxGeometry relative="1" as="geometry">
            <mxPoint x="520" y="350" as="sourcePoint" />
            <mxPoint x="440" y="350" as="targetPoint" />
          </mxGeometry>
        </mxCell>
        <mxCell id="dpF4v_OvI2u5oA4uFFR8-22" value="&lt;font style=&quot;font-size: 8px;&quot;&gt;EventListner&lt;/font&gt;" style="shape=umlLifeline;perimeter=lifelinePerimeter;whiteSpace=wrap;html=1;container=1;collapsible=0;recursiveResize=0;outlineConnect=0;fontSize=8;size=30;" parent="1" vertex="1">
          <mxGeometry x="230" y="340" width="70" height="200" as="geometry" />
        </mxCell>
        <mxCell id="dpF4v_OvI2u5oA4uFFR8-23" value="" style="html=1;points=[];perimeter=orthogonalPerimeter;fontSize=8;" parent="dpF4v_OvI2u5oA4uFFR8-22" vertex="1">
          <mxGeometry x="30" y="60" width="10" height="100" as="geometry" />
        </mxCell>
        <mxCell id="dpF4v_OvI2u5oA4uFFR8-27" value="" style="html=1;points=[];perimeter=orthogonalPerimeter;fontSize=8;" parent="dpF4v_OvI2u5oA4uFFR8-22" vertex="1">
          <mxGeometry x="35" y="100" width="10" height="30" as="geometry" />
        </mxCell>
        <mxCell id="dpF4v_OvI2u5oA4uFFR8-28" value="&lt;font size=&quot;1&quot;&gt;job添加到finishedNodes中&lt;/font&gt;" style="edgeStyle=orthogonalEdgeStyle;html=1;align=left;spacingLeft=2;endArrow=block;rounded=0;entryX=1;entryY=0;fontSize=8;" parent="dpF4v_OvI2u5oA4uFFR8-22" target="dpF4v_OvI2u5oA4uFFR8-27" edge="1">
          <mxGeometry relative="1" as="geometry">
            <mxPoint x="40" y="80" as="sourcePoint" />
            <Array as="points">
              <mxPoint x="70" y="80" />
            </Array>
          </mxGeometry>
        </mxCell>
        <mxCell id="dpF4v_OvI2u5oA4uFFR8-24" value="&lt;font style=&quot;font-size: 11px&quot;&gt;JobFinishedEvent&lt;/font&gt;" style="html=1;verticalAlign=bottom;endArrow=block;entryX=1;entryY=0;fontSize=3;exitX=-0.012;exitY=0.546;exitDx=0;exitDy=0;exitPerimeter=0;" parent="1" source="3nuBFxr9cyL0pnOWT2aG-6" target="dpF4v_OvI2u5oA4uFFR8-23" edge="1">
          <mxGeometry relative="1" as="geometry">
            <mxPoint x="340" y="400" as="sourcePoint" />
          </mxGeometry>
        </mxCell>
        <mxCell id="dpF4v_OvI2u5oA4uFFR8-25" value="return" style="html=1;verticalAlign=bottom;endArrow=open;dashed=1;endSize=8;exitX=1;exitY=0.95;fontSize=8;entryX=0.055;entryY=0.761;entryDx=0;entryDy=0;entryPerimeter=0;" parent="1" source="dpF4v_OvI2u5oA4uFFR8-23" target="3nuBFxr9cyL0pnOWT2aG-6" edge="1">
          <mxGeometry relative="1" as="geometry">
            <mxPoint x="340" y="495" as="targetPoint" />
          </mxGeometry>
        </mxCell>
        <mxCell id="dpF4v_OvI2u5oA4uFFR8-31" value="Loop&lt;br&gt;!flowFinished" style="shape=umlFrame;whiteSpace=wrap;html=1;fontSize=3;width=90;height=30;" parent="1" vertex="1">
          <mxGeometry x="50" y="290" width="170" height="220" as="geometry" />
        </mxCell>
        <mxCell id="dpF4v_OvI2u5oA4uFFR8-41" value="" style="html=1;points=[];perimeter=orthogonalPerimeter;fontSize=3;" parent="1" vertex="1">
          <mxGeometry x="170" y="390" width="10" height="100" as="geometry" />
        </mxCell>
        <mxCell id="dpF4v_OvI2u5oA4uFFR8-42" value="1.先判断job是否超时，超时则置为Fail_Retrying&lt;br&gt;否则执行2&lt;br&gt;2. 遍历finishedNodes&lt;br&gt;如果节点是Fail_Retrying，重新提交该节点&lt;br&gt;否则，提交后继节点" style="edgeStyle=orthogonalEdgeStyle;html=1;align=left;spacingLeft=2;endArrow=block;rounded=0;entryX=1;entryY=0;fontSize=3;" parent="1" target="dpF4v_OvI2u5oA4uFFR8-41" edge="1">
          <mxGeometry x="1" y="216" relative="1" as="geometry">
            <mxPoint x="175" y="300" as="sourcePoint" />
            <Array as="points">
              <mxPoint x="205" y="300" />
            </Array>
            <mxPoint x="-210" y="-166" as="offset" />
          </mxGeometry>
        </mxCell>
        <mxCell id="j4lV5eCnGoTFWmdodsjc-1" value="FlowRunner" style="shape=umlLifeline;perimeter=lifelinePerimeter;container=1;collapsible=0;recursiveResize=0;rounded=0;shadow=0;strokeWidth=1;" vertex="1" parent="1">
          <mxGeometry x="130" y="750" width="100" height="470" as="geometry" />
        </mxCell>
        <mxCell id="j4lV5eCnGoTFWmdodsjc-2" value="" style="points=[];perimeter=orthogonalPerimeter;rounded=0;shadow=0;strokeWidth=1;" vertex="1" parent="j4lV5eCnGoTFWmdodsjc-1">
          <mxGeometry x="45" y="70" width="10" height="380" as="geometry" />
        </mxCell>
        <mxCell id="j4lV5eCnGoTFWmdodsjc-3" value="" style="html=1;points=[];perimeter=orthogonalPerimeter;" vertex="1" parent="j4lV5eCnGoTFWmdodsjc-1">
          <mxGeometry x="50" y="107" width="10" height="90" as="geometry" />
        </mxCell>
        <mxCell id="j4lV5eCnGoTFWmdodsjc-4" value="processGraph()" style="edgeStyle=orthogonalEdgeStyle;html=1;align=left;spacingLeft=2;endArrow=block;rounded=0;entryX=1;entryY=0;" edge="1" parent="j4lV5eCnGoTFWmdodsjc-1" target="j4lV5eCnGoTFWmdodsjc-3">
          <mxGeometry relative="1" as="geometry">
            <mxPoint x="55" y="87" as="sourcePoint" />
            <Array as="points">
              <mxPoint x="85" y="87" />
            </Array>
          </mxGeometry>
        </mxCell>
        <mxCell id="j4lV5eCnGoTFWmdodsjc-5" value="线程池启动JobRunner" style="html=1;verticalAlign=bottom;endArrow=block;entryX=0.083;entryY=0.182;entryDx=0;entryDy=0;entryPerimeter=0;" edge="1" parent="j4lV5eCnGoTFWmdodsjc-1">
          <mxGeometry width="80" relative="1" as="geometry">
            <mxPoint x="60" y="167" as="sourcePoint" />
            <mxPoint x="225.82999999999993" y="167.08000000000015" as="targetPoint" />
          </mxGeometry>
        </mxCell>
        <mxCell id="j4lV5eCnGoTFWmdodsjc-6" value="JobRunner" style="shape=umlLifeline;perimeter=lifelinePerimeter;container=1;collapsible=0;recursiveResize=0;rounded=0;shadow=0;strokeWidth=1;" vertex="1" parent="1">
          <mxGeometry x="310" y="750" width="100" height="470" as="geometry" />
        </mxCell>
        <mxCell id="j4lV5eCnGoTFWmdodsjc-7" value="" style="points=[];perimeter=orthogonalPerimeter;rounded=0;shadow=0;strokeWidth=1;" vertex="1" parent="j4lV5eCnGoTFWmdodsjc-6">
          <mxGeometry x="45" y="80" width="10" height="320" as="geometry" />
        </mxCell>
        <mxCell id="j4lV5eCnGoTFWmdodsjc-8" value="" style="html=1;points=[];perimeter=orthogonalPerimeter;" vertex="1" parent="j4lV5eCnGoTFWmdodsjc-6">
          <mxGeometry x="50" y="209" width="10" height="87" as="geometry" />
        </mxCell>
        <mxCell id="j4lV5eCnGoTFWmdodsjc-9" value="runJob()" style="edgeStyle=orthogonalEdgeStyle;html=1;align=left;spacingLeft=2;endArrow=block;rounded=0;entryX=1;entryY=0;" edge="1" parent="j4lV5eCnGoTFWmdodsjc-6" target="j4lV5eCnGoTFWmdodsjc-8">
          <mxGeometry relative="1" as="geometry">
            <mxPoint x="55" y="189" as="sourcePoint" />
            <Array as="points">
              <mxPoint x="85" y="189" />
            </Array>
          </mxGeometry>
        </mxCell>
        <mxCell id="j4lV5eCnGoTFWmdodsjc-10" value="job#run()" style="html=1;verticalAlign=bottom;endArrow=block;entryX=0.11;entryY=0.157;entryDx=0;entryDy=0;entryPerimeter=0;" edge="1" parent="j4lV5eCnGoTFWmdodsjc-6" target="j4lV5eCnGoTFWmdodsjc-14">
          <mxGeometry width="80" relative="1" as="geometry">
            <mxPoint x="60" y="226" as="sourcePoint" />
            <mxPoint x="225" y="226" as="targetPoint" />
          </mxGeometry>
        </mxCell>
        <mxCell id="j4lV5eCnGoTFWmdodsjc-11" value="return" style="verticalAlign=bottom;endArrow=open;dashed=1;endSize=8;shadow=0;strokeWidth=1;align=center;exitX=-0.086;exitY=0.91;exitDx=0;exitDy=0;exitPerimeter=0;" edge="1" parent="1" source="j4lV5eCnGoTFWmdodsjc-7" target="j4lV5eCnGoTFWmdodsjc-2">
          <mxGeometry x="0.4635" y="-8" relative="1" as="geometry">
            <mxPoint x="285" y="906" as="targetPoint" />
            <mxPoint as="offset" />
          </mxGeometry>
        </mxCell>
        <mxCell id="j4lV5eCnGoTFWmdodsjc-12" value="构造JobRunner" style="html=1;verticalAlign=bottom;endArrow=block;entryX=-0.029;entryY=0.091;entryDx=0;entryDy=0;entryPerimeter=0;" edge="1" parent="1">
          <mxGeometry width="80" relative="1" as="geometry">
            <mxPoint x="190" y="876.97" as="sourcePoint" />
            <mxPoint x="354.7099999999996" y="877.04" as="targetPoint" />
          </mxGeometry>
        </mxCell>
        <mxCell id="j4lV5eCnGoTFWmdodsjc-13" value="Job" style="shape=umlLifeline;perimeter=lifelinePerimeter;container=1;collapsible=0;recursiveResize=0;rounded=0;shadow=0;strokeWidth=1;" vertex="1" parent="1">
          <mxGeometry x="469" y="750" width="100" height="460" as="geometry" />
        </mxCell>
        <mxCell id="j4lV5eCnGoTFWmdodsjc-14" value="" style="points=[];perimeter=orthogonalPerimeter;rounded=0;shadow=0;strokeWidth=1;" vertex="1" parent="j4lV5eCnGoTFWmdodsjc-13">
          <mxGeometry x="45" y="210" width="10" height="110" as="geometry" />
        </mxCell>
        <mxCell id="j4lV5eCnGoTFWmdodsjc-15" value="" style="html=1;points=[];perimeter=orthogonalPerimeter;fontSize=8;" vertex="1" parent="j4lV5eCnGoTFWmdodsjc-13">
          <mxGeometry x="50" y="256" width="10" height="20" as="geometry" />
        </mxCell>
        <mxCell id="j4lV5eCnGoTFWmdodsjc-16" value="&lt;font style=&quot;font-size: 10px&quot;&gt;执行实际的job&lt;/font&gt;" style="edgeStyle=orthogonalEdgeStyle;html=1;align=left;spacingLeft=2;endArrow=block;rounded=0;entryX=1;entryY=0;fontSize=8;" edge="1" parent="j4lV5eCnGoTFWmdodsjc-13" target="j4lV5eCnGoTFWmdodsjc-15">
          <mxGeometry relative="1" as="geometry">
            <mxPoint x="55" y="236" as="sourcePoint" />
            <Array as="points">
              <mxPoint x="85" y="236" />
            </Array>
          </mxGeometry>
        </mxCell>
        <mxCell id="j4lV5eCnGoTFWmdodsjc-17" value="return exitcode" style="html=1;verticalAlign=bottom;endArrow=open;dashed=1;endSize=8;entryX=1.028;entryY=0.892;entryDx=0;entryDy=0;entryPerimeter=0;" edge="1" parent="1" target="j4lV5eCnGoTFWmdodsjc-8">
          <mxGeometry relative="1" as="geometry">
            <mxPoint x="510" y="1036" as="sourcePoint" />
            <mxPoint x="450" y="1036" as="targetPoint" />
          </mxGeometry>
        </mxCell>
        <mxCell id="j4lV5eCnGoTFWmdodsjc-18" value="&lt;font style=&quot;font-size: 8px;&quot;&gt;EventListner&lt;/font&gt;" style="shape=umlLifeline;perimeter=lifelinePerimeter;whiteSpace=wrap;html=1;container=1;collapsible=0;recursiveResize=0;outlineConnect=0;fontSize=8;size=30;" vertex="1" parent="1">
          <mxGeometry x="240" y="1010" width="70" height="200" as="geometry" />
        </mxCell>
        <mxCell id="j4lV5eCnGoTFWmdodsjc-19" value="" style="html=1;points=[];perimeter=orthogonalPerimeter;fontSize=8;" vertex="1" parent="j4lV5eCnGoTFWmdodsjc-18">
          <mxGeometry x="30" y="60" width="10" height="100" as="geometry" />
        </mxCell>
        <mxCell id="j4lV5eCnGoTFWmdodsjc-20" value="" style="html=1;points=[];perimeter=orthogonalPerimeter;fontSize=8;" vertex="1" parent="j4lV5eCnGoTFWmdodsjc-18">
          <mxGeometry x="35" y="100" width="10" height="30" as="geometry" />
        </mxCell>
        <mxCell id="j4lV5eCnGoTFWmdodsjc-21" value="&lt;font size=&quot;1&quot;&gt;job添加到finishedNodes中&lt;/font&gt;" style="edgeStyle=orthogonalEdgeStyle;html=1;align=left;spacingLeft=2;endArrow=block;rounded=0;entryX=1;entryY=0;fontSize=8;" edge="1" parent="j4lV5eCnGoTFWmdodsjc-18" target="j4lV5eCnGoTFWmdodsjc-20">
          <mxGeometry relative="1" as="geometry">
            <mxPoint x="40" y="80" as="sourcePoint" />
            <Array as="points">
              <mxPoint x="70" y="80" />
            </Array>
          </mxGeometry>
        </mxCell>
        <mxCell id="j4lV5eCnGoTFWmdodsjc-22" value="&lt;span style=&quot;font-size: 11px&quot;&gt;发送Job完成事件&lt;/span&gt;" style="html=1;verticalAlign=bottom;endArrow=block;entryX=1;entryY=0;fontSize=3;" edge="1" parent="1" source="j4lV5eCnGoTFWmdodsjc-6" target="j4lV5eCnGoTFWmdodsjc-19">
          <mxGeometry relative="1" as="geometry">
            <mxPoint x="350" y="1070" as="sourcePoint" />
          </mxGeometry>
        </mxCell>
        <mxCell id="j4lV5eCnGoTFWmdodsjc-27" value="工作流未结束" style="shape=umlFrame;whiteSpace=wrap;html=1;strokeColor=#0066CC;width=80;height=30;" vertex="1" parent="1">
          <mxGeometry x="30" y="830" width="230" height="250" as="geometry" />
        </mxCell>
      </root>
    </mxGraphModel>
  </diagram>
</mxfile>
